[img]http://img715.imageshack.us/img715/2632/sherlocki.jpg[/img]
[code]
Sherlock Holmes A Game of Shadows 2011 READNFO CAM XviD-26K

Imdb: 
http://www.imdb.com/title/tt1515091/

Plot:
Sherlock Holmes and his sidekick Dr. Watson join forces to outwit and bring down their fiercest adversary, Professor Moriarty.

Sources:
generator thnxs

Notes:
READNFO?? well as arabic subs so take it or leave it :P a new source for this is coming soon until then enjoy this :) :p
cropped and resized and added a few filters to make the video and audio sound good :)
enjoy!
3mins of audio is missing so take or leave it..
and new source soon :)


Greetz:
Xtreme Encode|FYA|ILLUMANTI|CM8|RX|VISION|HDSCENE|NIGHTMAREZ|xTriLL|DTRG|CRYS|REMIXHD|BIDA
To all the people who have helped me :P you know who you are

Anything to offer email us @: 26k@hushmail.me

Video
ID                                       : 0
Format                                   : MPEG-4 Visual
Format profile                           : Advanced Simple@L5
Format settings, BVOP                    : 2
Format settings, QPel                    : No
Format settings, GMC                     : No warppoints
Format settings, Matrix                  : Default (H.263)
Codec ID                                 : XVID
Codec ID/Hint                            : XviD
Duration                                 : 1h 56mn
Bit rate                                 : 1 585 Kbps
Width                                    : 768 pixels
Height                                   : 282 pixels
Display aspect ratio                     : 2.723
Frame rate                               : 25.000 fps
Color space                              : YUV
Chroma subsampling                       : 4:2:0
Bit depth                                : 8 bits
Scan type                                : Progressive
Compression mode                         : Lossy
Bits/(Pixel*Frame)                       : 0.293
Stream size                              : 1.29 GiB (92%)
Writing library                          : XviD 63

Audio
ID                                       : 1
Format                                   : MPEG Audio
Format version                           : Version 1
Format profile                           : Layer 3
Mode                                     : Joint stereo
Mode extension                           : MS Stereo
Codec ID                                 : 55
Codec ID/Hint                            : MP3
Duration                                 : 1h 56mn
Bit rate mode                            : Constant
Bit rate                                 : 128 Kbps
Channel(s)                               : 2 channels
Sampling rate                            : 48.0 KHz
Compression mode                         : Lossy
Stream size                              : 106 MiB (7%)
Alignment                                : Aligned on interleaves
Interleave, duration                     : 24 ms (0.60 video frame)


[/code]
Screens:
[img]http://img210.imageshack.us/img210/9766/vlcsnap2011122316h02m33.png[/img]
[img]http://img849.imageshack.us/img849/7783/vlcsnap2011122316h02m35.png[/img]
[img]http://img13.imageshack.us/img13/5274/vlcsnap2011122316h02m43.png[/img]
[img]http://img854.imageshack.us/img854/8838/vlcsnap2011122316h02m48.png[/img]
[img]http://img62.imageshack.us/img62/6433/vlcsnap2011122316h03m03.png[/img]

[img]http://img851.imageshack.us/img851/5503/26ks.jpg[/img]#
Thank you smallz for banner!